<svg width="200" height="200" viewBox="0 0 200 200" fill="none" xmlns="http://www.w3.org/2000/svg">
<path d="M44.6875 38.5625H49.7656L60.4102 69.4414H55.332L44.6875 38.5625ZM68.7109 38.5625H73.7891L84.4336 69.4414H79.3555L68.7109 38.5625ZM108.75 71.2383H90.9375V67H108.75V71.2383ZM121.426 69.4414H116.367L127.012 38.5625H132.07L121.426 69.4414ZM145.449 69.4414H140.391L151.035 38.5625H156.094L145.449 69.4414ZM60.7031 124.238H42.8906V120H60.7031V124.238ZM73.3789 122.441H68.3203L78.9648 91.5625H84.0234L73.3789 122.441ZM97.5586 92.1094L96.9922 100.312H93.5352V92.207V90H97.5586V92.1094ZM105.586 92.1094L105.039 100.312H101.582V92.1484V90H105.586V92.1094ZM120.312 116.855C120.312 115.853 120.645 115.007 121.309 114.316C121.973 113.613 122.897 113.262 124.082 113.262C125.254 113.262 126.172 113.607 126.836 114.297C127.513 114.987 127.852 115.84 127.852 116.855C127.852 117.871 127.507 118.717 126.816 119.395C126.139 120.059 125.228 120.391 124.082 120.391C122.923 120.391 122.005 120.052 121.328 119.375C120.651 118.698 120.312 117.858 120.312 116.855Z" fill="#DE7F92"/>
<path d="M44.6875 38.5625V37.9625H43.846L44.1203 38.758L44.6875 38.5625ZM49.7656 38.5625L50.3329 38.367L50.1934 37.9625H49.7656V38.5625ZM60.4102 69.4414V70.0414H61.2516L60.9774 69.2459L60.4102 69.4414ZM55.332 69.4414L54.7648 69.6369L54.9042 70.0414H55.332V69.4414ZM44.6875 39.1625H49.7656V37.9625H44.6875V39.1625ZM49.1984 38.758L59.8429 69.6369L60.9774 69.2459L50.3329 38.367L49.1984 38.758ZM60.4102 68.8414H55.332V70.0414H60.4102V68.8414ZM55.8993 69.2459L45.2547 38.367L44.1203 38.758L54.7648 69.6369L55.8993 69.2459ZM68.7109 38.5625V37.9625H67.8695L68.1437 38.758L68.7109 38.5625ZM73.7891 38.5625L74.3563 38.367L74.2169 37.9625H73.7891V38.5625ZM84.4336 69.4414V70.0414H85.2751L85.0008 69.2459L84.4336 69.4414ZM79.3555 69.4414L78.7882 69.6369L78.9277 70.0414H79.3555V69.4414ZM68.7109 39.1625H73.7891V37.9625H68.7109V39.1625ZM73.2218 38.758L83.8664 69.6369L85.0008 69.2459L74.3563 38.367L73.2218 38.758ZM84.4336 68.8414H79.3555V70.0414H84.4336V68.8414ZM79.9227 69.2459L69.2782 38.367L68.1437 38.758L78.7882 69.6369L79.9227 69.2459ZM108.75 71.2383V71.8383H109.35V71.2383H108.75ZM90.9375 71.2383H90.3375V71.8383H90.9375V71.2383ZM90.9375 67V66.4H90.3375V67H90.9375ZM108.75 67H109.35V66.4H108.75V67ZM108.75 70.6383H90.9375V71.8383H108.75V70.6383ZM91.5375 71.2383V67H90.3375V71.2383H91.5375ZM90.9375 67.6H108.75V66.4H90.9375V67.6ZM108.15 67V71.2383H109.35V67H108.15ZM121.426 69.4414V70.0414H121.854L121.993 69.6369L121.426 69.4414ZM116.367 69.4414L115.8 69.2459L115.526 70.0414H116.367V69.4414ZM127.012 38.5625V37.9625H126.584L126.444 38.367L127.012 38.5625ZM132.07 38.5625L132.638 38.758L132.912 37.9625H132.07V38.5625ZM121.426 68.8414H116.367V70.0414H121.426V68.8414ZM116.934 69.6369L127.579 38.758L126.444 38.367L115.8 69.2459L116.934 69.6369ZM127.012 39.1625H132.07V37.9625H127.012V39.1625ZM131.503 38.367L120.859 69.2459L121.993 69.6369L132.638 38.758L131.503 38.367ZM145.449 69.4414V70.0414H145.877L146.016 69.6369L145.449 69.4414ZM140.391 69.4414L139.823 69.2459L139.549 70.0414H140.391V69.4414ZM151.035 38.5625V37.9625H150.607L150.468 38.367L151.035 38.5625ZM156.094 38.5625L156.661 38.758L156.935 37.9625H156.094V38.5625ZM145.449 68.8414H140.391V70.0414H145.449V68.8414ZM140.958 69.6369L151.602 38.758L150.468 38.367L139.823 69.2459L140.958 69.6369ZM151.035 39.1625H156.094V37.9625H151.035V39.1625ZM155.527 38.367L144.882 69.2459L146.016 69.6369L156.661 38.758L155.527 38.367ZM60.7031 124.238V124.838H61.3031V124.238H60.7031ZM42.8906 124.238H42.2906V124.838H42.8906V124.238ZM42.8906 120V119.4H42.2906V120H42.8906ZM60.7031 120H61.3031V119.4H60.7031V120ZM60.7031 123.638H42.8906V124.838H60.7031V123.638ZM43.4906 124.238V120H42.2906V124.238H43.4906ZM42.8906 120.6H60.7031V119.4H42.8906V120.6ZM60.1031 120V124.238H61.3031V120H60.1031ZM73.3789 122.441V123.041H73.8067L73.9461 122.637L73.3789 122.441ZM68.3203 122.441L67.7531 122.246L67.4788 123.041H68.3203V122.441ZM78.9648 91.5625V90.9625H78.537L78.3976 91.367L78.9648 91.5625ZM84.0234 91.5625L84.5907 91.758L84.8649 90.9625H84.0234V91.5625ZM73.3789 121.841H68.3203V123.041H73.3789V121.841ZM68.8876 122.637L79.5321 91.758L78.3976 91.367L67.7531 122.246L68.8876 122.637ZM78.9648 92.1625H84.0234V90.9625H78.9648V92.1625ZM83.4562 91.367L72.8117 122.246L73.9461 122.637L84.5907 91.758L83.4562 91.367ZM97.5586 92.1094L98.1572 92.1507L98.1586 92.1301V92.1094H97.5586ZM96.9922 100.312V100.913H97.5522L97.5908 100.354L96.9922 100.312ZM93.5352 100.312H92.9352V100.913H93.5352V100.312ZM93.5352 90V89.4H92.9352V90H93.5352ZM97.5586 90H98.1586V89.4H97.5586V90ZM105.586 92.1094L106.185 92.1493L106.186 92.1294V92.1094H105.586ZM105.039 100.312V100.913H105.6L105.638 100.352L105.039 100.312ZM101.582 100.312H100.982V100.913H101.582V100.312ZM101.582 90V89.4H100.982V90H101.582ZM105.586 90H106.186V89.4H105.586V90ZM96.96 92.068L96.3936 100.271L97.5908 100.354L98.1572 92.1507L96.96 92.068ZM96.9922 99.7125H93.5352V100.913H96.9922V99.7125ZM94.1352 100.312V92.207H92.9352V100.312H94.1352ZM94.1352 92.207V90H92.9352V92.207H94.1352ZM93.5352 90.6H97.5586V89.4H93.5352V90.6ZM96.9586 90V92.1094H98.1586V90H96.9586ZM104.987 92.0695L104.44 100.273L105.638 100.352L106.185 92.1493L104.987 92.0695ZM105.039 99.7125H101.582V100.913H105.039V99.7125ZM102.182 100.312V92.1484H100.982V100.312H102.182ZM102.182 92.1484V90H100.982V92.1484H102.182ZM101.582 90.6H105.586V89.4H101.582V90.6ZM104.986 90V92.1094H106.186V90H104.986ZM121.309 114.316L121.741 114.732L121.745 114.728L121.309 114.316ZM126.836 114.297L126.404 114.713L126.408 114.717L126.836 114.297ZM126.816 119.395L127.237 119.823L127.237 119.823L126.816 119.395ZM120.913 116.855C120.913 116 121.19 115.305 121.741 114.732L120.876 113.9C120.099 114.708 119.712 115.706 119.712 116.855H120.913ZM121.745 114.728C122.271 114.171 123.022 113.862 124.082 113.862V112.662C122.772 112.662 121.675 113.055 120.872 113.904L121.745 114.728ZM124.082 113.862C125.13 113.862 125.877 114.166 126.404 114.713L127.268 113.881C126.467 113.048 125.378 112.662 124.082 112.662V113.862ZM126.408 114.717C126.969 115.289 127.252 115.988 127.252 116.855H128.452C128.452 115.691 128.057 114.685 127.264 113.877L126.408 114.717ZM127.252 116.855C127.252 117.719 126.965 118.408 126.396 118.966L127.237 119.823C128.048 119.027 128.452 118.023 128.452 116.855H127.252ZM126.396 118.966C125.854 119.498 125.106 119.791 124.082 119.791V120.991C125.35 120.991 126.425 120.619 127.237 119.823L126.396 118.966ZM124.082 119.791C123.047 119.791 122.294 119.492 121.752 118.951L120.904 119.799C121.716 120.612 122.8 120.991 124.082 120.991V119.791ZM121.752 118.951C121.194 118.392 120.913 117.707 120.913 116.855H119.712C119.712 118.009 120.108 119.004 120.904 119.799L121.752 118.951Z" fill="#DE7F92"/>
<path d="M38.3359 163.133C38.3359 162.531 38.5352 162.023 38.9336 161.609C39.332 161.188 39.8867 160.977 40.5977 160.977C41.3008 160.977 41.8516 161.184 42.25 161.598C42.6562 162.012 42.8594 162.523 42.8594 163.133C42.8594 163.742 42.6523 164.25 42.2383 164.656C41.832 165.055 41.2852 165.254 40.5977 165.254C39.9023 165.254 39.3516 165.051 38.9453 164.645C38.5391 164.238 38.3359 163.734 38.3359 163.133ZM53.418 166.484H50.3828L56.7695 147.957H59.8047L53.418 166.484ZM64.7383 152.34H71.6406V162.371H75.0742V165.02H64.7383V162.371H68.3477V155H64.7383V152.34ZM68.1133 149.094C68.1133 148.844 68.1562 148.613 68.2422 148.402C68.3359 148.184 68.4648 147.996 68.6289 147.84C68.793 147.691 68.9883 147.574 69.2148 147.488C69.4492 147.402 69.707 147.359 69.9883 147.359C70.5664 147.359 71.0234 147.523 71.3594 147.852C71.7031 148.172 71.875 148.586 71.875 149.094C71.875 149.602 71.7031 150.02 71.3594 150.348C71.0234 150.668 70.5664 150.828 69.9883 150.828C69.707 150.828 69.4492 150.785 69.2148 150.699C68.9883 150.613 68.793 150.492 68.6289 150.336C68.4648 150.188 68.3359 150.008 68.2422 149.797C68.1562 149.578 68.1133 149.344 68.1133 149.094ZM78.2852 165.02V152.34H81.2383L81.4375 154.098C81.6016 153.863 81.7812 153.648 81.9766 153.453C82.1719 153.258 82.3789 153.082 82.5977 152.926C82.9727 152.66 83.3828 152.457 83.8281 152.316C84.2734 152.176 84.7461 152.105 85.2461 152.105C85.8867 152.105 86.4727 152.199 87.0039 152.387C87.5352 152.574 87.9961 152.871 88.3867 153.277C88.7695 153.691 89.0664 154.223 89.2773 154.871C89.4961 155.512 89.6055 156.293 89.6055 157.215V165.02H86.3477V157.262C86.3477 156.762 86.2891 156.352 86.1719 156.031C86.0625 155.703 85.9023 155.445 85.6914 155.258C85.4805 155.07 85.2266 154.941 84.9297 154.871C84.6328 154.793 84.2969 154.754 83.9219 154.754C83.6094 154.754 83.3203 154.789 83.0547 154.859C82.7969 154.93 82.5664 155.035 82.3633 155.176C82.1992 155.277 82.0508 155.398 81.918 155.539C81.7852 155.68 81.6641 155.836 81.5547 156.008V165.02H78.2852ZM100.879 161.539C100.879 161.344 100.832 161.172 100.738 161.023C100.652 160.875 100.496 160.734 100.27 160.602C100.035 160.477 99.7266 160.359 99.3438 160.25C98.9609 160.141 98.4766 160.031 97.8906 159.922C97.1484 159.773 96.4688 159.59 95.8516 159.371C95.2422 159.145 94.7188 158.871 94.2812 158.551C93.8438 158.238 93.5 157.875 93.25 157.461C93.0078 157.047 92.8867 156.57 92.8867 156.031C92.8867 155.508 93.0117 155.008 93.2617 154.531C93.5117 154.055 93.8711 153.637 94.3398 153.277C94.8086 152.918 95.3789 152.633 96.0508 152.422C96.7227 152.211 97.4805 152.105 98.3242 152.105C99.207 152.105 100 152.211 100.703 152.422C101.406 152.625 102.004 152.906 102.496 153.266C102.98 153.633 103.352 154.066 103.609 154.566C103.867 155.066 103.996 155.609 103.996 156.195H100.738C100.738 155.984 100.703 155.789 100.633 155.609C100.562 155.422 100.457 155.254 100.316 155.105C100.121 154.91 99.8555 154.754 99.5195 154.637C99.1914 154.52 98.793 154.461 98.3242 154.461C97.9258 154.461 97.5781 154.5 97.2812 154.578C96.9844 154.656 96.7422 154.766 96.5547 154.906C96.3828 155.031 96.25 155.18 96.1562 155.352C96.0703 155.516 96.0273 155.691 96.0273 155.879C96.0273 156.066 96.0664 156.242 96.1445 156.406C96.2227 156.562 96.3633 156.703 96.5664 156.828C96.7617 156.961 97.0312 157.082 97.375 157.191C97.7188 157.293 98.1562 157.383 98.6875 157.461C99.4531 157.586 100.164 157.746 100.82 157.941C101.477 158.137 102.043 158.387 102.52 158.691C102.996 159.004 103.367 159.383 103.633 159.828C103.906 160.266 104.043 160.789 104.043 161.398C104.043 161.961 103.906 162.48 103.633 162.957C103.367 163.426 102.988 163.832 102.496 164.176C101.996 164.52 101.395 164.789 100.691 164.984C99.9883 165.172 99.2031 165.266 98.3359 165.266C97.3828 165.266 96.5391 165.141 95.8047 164.891C95.0781 164.641 94.4688 164.312 93.9766 163.906C93.4844 163.508 93.1094 163.055 92.8516 162.547C92.6016 162.031 92.4766 161.516 92.4766 161H95.582C95.6055 161.344 95.6992 161.641 95.8633 161.891C96.0273 162.133 96.2383 162.328 96.4961 162.477C96.7539 162.633 97.0469 162.746 97.375 162.816C97.7109 162.887 98.0547 162.922 98.4062 162.922C98.8281 162.922 99.1953 162.887 99.5078 162.816C99.8281 162.738 100.09 162.637 100.293 162.512C100.488 162.387 100.633 162.242 100.727 162.078C100.828 161.914 100.879 161.734 100.879 161.539ZM115.035 165.02C114.957 164.863 114.891 164.684 114.836 164.48C114.781 164.277 114.734 164.062 114.695 163.836C114.516 164.031 114.309 164.215 114.074 164.387C113.84 164.559 113.582 164.707 113.301 164.832C113.012 164.965 112.695 165.066 112.352 165.137C112.008 165.215 111.637 165.254 111.238 165.254C110.59 165.254 109.992 165.16 109.445 164.973C108.906 164.785 108.441 164.523 108.051 164.188C107.66 163.852 107.355 163.453 107.137 162.992C106.918 162.523 106.809 162.016 106.809 161.469C106.809 160.766 106.945 160.145 107.219 159.605C107.492 159.059 107.902 158.609 108.449 158.258C108.941 157.938 109.547 157.695 110.266 157.531C110.992 157.359 111.824 157.273 112.762 157.273H114.578V156.523C114.578 156.227 114.531 155.961 114.438 155.727C114.344 155.484 114.203 155.277 114.016 155.105C113.82 154.926 113.574 154.789 113.277 154.695C112.988 154.594 112.648 154.543 112.258 154.543C111.914 154.543 111.617 154.586 111.367 154.672C111.117 154.75 110.914 154.863 110.758 155.012C110.617 155.145 110.512 155.305 110.441 155.492C110.379 155.68 110.348 155.887 110.348 156.113H107.09C107.09 155.574 107.207 155.062 107.441 154.578C107.684 154.094 108.035 153.668 108.496 153.301C108.949 152.934 109.504 152.645 110.16 152.434C110.824 152.215 111.582 152.105 112.434 152.105C113.199 152.105 113.91 152.199 114.566 152.387C115.23 152.574 115.805 152.852 116.289 153.219C116.773 153.586 117.152 154.051 117.426 154.613C117.699 155.168 117.836 155.812 117.836 156.547V161.984C117.836 162.664 117.879 163.227 117.965 163.672C118.051 164.117 118.176 164.5 118.34 164.82V165.02H115.035ZM111.93 162.734C112.258 162.734 112.562 162.695 112.844 162.617C113.125 162.539 113.379 162.438 113.605 162.312C113.832 162.188 114.027 162.047 114.191 161.891C114.355 161.727 114.484 161.562 114.578 161.398V159.219H112.914C112.406 159.219 111.973 159.27 111.613 159.371C111.254 159.465 110.961 159.598 110.734 159.77C110.508 159.949 110.34 160.164 110.23 160.414C110.121 160.656 110.066 160.922 110.066 161.211C110.066 161.438 110.105 161.648 110.184 161.844C110.27 162.031 110.391 162.191 110.547 162.324C110.703 162.449 110.895 162.551 111.121 162.629C111.355 162.699 111.625 162.734 111.93 162.734ZM124.82 163.133C124.82 162.531 125.02 162.023 125.418 161.609C125.816 161.188 126.371 160.977 127.082 160.977C127.785 160.977 128.336 161.184 128.734 161.598C129.141 162.012 129.344 162.523 129.344 163.133C129.344 163.742 129.137 164.25 128.723 164.656C128.316 165.055 127.77 165.254 127.082 165.254C126.387 165.254 125.836 165.051 125.43 164.645C125.023 164.238 124.82 163.734 124.82 163.133ZM144.121 161.539C144.121 161.344 144.074 161.172 143.98 161.023C143.895 160.875 143.738 160.734 143.512 160.602C143.277 160.477 142.969 160.359 142.586 160.25C142.203 160.141 141.719 160.031 141.133 159.922C140.391 159.773 139.711 159.59 139.094 159.371C138.484 159.145 137.961 158.871 137.523 158.551C137.086 158.238 136.742 157.875 136.492 157.461C136.25 157.047 136.129 156.57 136.129 156.031C136.129 155.508 136.254 155.008 136.504 154.531C136.754 154.055 137.113 153.637 137.582 153.277C138.051 152.918 138.621 152.633 139.293 152.422C139.965 152.211 140.723 152.105 141.566 152.105C142.449 152.105 143.242 152.211 143.945 152.422C144.648 152.625 145.246 152.906 145.738 153.266C146.223 153.633 146.594 154.066 146.852 154.566C147.109 155.066 147.238 155.609 147.238 156.195H143.98C143.98 155.984 143.945 155.789 143.875 155.609C143.805 155.422 143.699 155.254 143.559 155.105C143.363 154.91 143.098 154.754 142.762 154.637C142.434 154.52 142.035 154.461 141.566 154.461C141.168 154.461 140.82 154.5 140.523 154.578C140.227 154.656 139.984 154.766 139.797 154.906C139.625 155.031 139.492 155.18 139.398 155.352C139.312 155.516 139.27 155.691 139.27 155.879C139.27 156.066 139.309 156.242 139.387 156.406C139.465 156.562 139.605 156.703 139.809 156.828C140.004 156.961 140.273 157.082 140.617 157.191C140.961 157.293 141.398 157.383 141.93 157.461C142.695 157.586 143.406 157.746 144.062 157.941C144.719 158.137 145.285 158.387 145.762 158.691C146.238 159.004 146.609 159.383 146.875 159.828C147.148 160.266 147.285 160.789 147.285 161.398C147.285 161.961 147.148 162.48 146.875 162.957C146.609 163.426 146.23 163.832 145.738 164.176C145.238 164.52 144.637 164.789 143.934 164.984C143.23 165.172 142.445 165.266 141.578 165.266C140.625 165.266 139.781 165.141 139.047 164.891C138.32 164.641 137.711 164.312 137.219 163.906C136.727 163.508 136.352 163.055 136.094 162.547C135.844 162.031 135.719 161.516 135.719 161H138.824C138.848 161.344 138.941 161.641 139.105 161.891C139.27 162.133 139.48 162.328 139.738 162.477C139.996 162.633 140.289 162.746 140.617 162.816C140.953 162.887 141.297 162.922 141.648 162.922C142.07 162.922 142.438 162.887 142.75 162.816C143.07 162.738 143.332 162.637 143.535 162.512C143.73 162.387 143.875 162.242 143.969 162.078C144.07 161.914 144.121 161.734 144.121 161.539ZM153.613 154.086C153.777 153.844 153.957 153.621 154.152 153.418C154.355 153.207 154.566 153.023 154.785 152.867C155.121 152.625 155.492 152.438 155.898 152.305C156.305 152.172 156.734 152.105 157.188 152.105C157.852 152.105 158.461 152.207 159.016 152.41C159.57 152.605 160.047 152.914 160.445 153.336C160.844 153.758 161.152 154.301 161.371 154.965C161.598 155.621 161.711 156.414 161.711 157.344V165.02H158.453V157.32C158.453 156.867 158.395 156.477 158.277 156.148C158.168 155.82 158.008 155.555 157.797 155.352C157.586 155.148 157.332 155 157.035 154.906C156.738 154.805 156.402 154.754 156.027 154.754C155.738 154.754 155.469 154.781 155.219 154.836C154.969 154.891 154.742 154.973 154.539 155.082C154.352 155.176 154.18 155.289 154.023 155.422C153.875 155.555 153.738 155.703 153.613 155.867V165.02H150.355V147.02H153.613V154.086Z" fill="#DE7F92"/>
<path d="M38.9336 161.609L39.1498 161.817L39.1517 161.815L38.9336 161.609ZM42.25 161.598L42.0338 161.806L42.0359 161.808L42.25 161.598ZM42.2383 164.656L42.4483 164.87L42.4484 164.87L42.2383 164.656ZM38.6359 163.133C38.6359 162.605 38.8078 162.173 39.1498 161.817L38.7174 161.401C38.2625 161.874 38.0359 162.458 38.0359 163.133H38.6359ZM39.1517 161.815C39.4811 161.467 39.9493 161.277 40.5977 161.277V160.677C39.8241 160.677 39.183 160.908 38.7155 161.403L39.1517 161.815ZM40.5977 161.277C41.2387 161.277 41.7042 161.463 42.0338 161.806L42.4662 161.39C41.9989 160.904 41.3628 160.677 40.5977 160.677V161.277ZM42.0359 161.808C42.3841 162.163 42.5594 162.598 42.5594 163.133H43.1594C43.1594 162.449 42.9284 161.861 42.4641 161.388L42.0359 161.808ZM42.5594 163.133C42.5594 163.666 42.3816 164.095 42.0282 164.442L42.4484 164.87C42.9231 164.405 43.1594 163.818 43.1594 163.133H42.5594ZM42.0282 164.442C41.6894 164.774 41.224 164.954 40.5977 164.954V165.554C41.3463 165.554 41.9747 165.335 42.4483 164.87L42.0282 164.442ZM40.5977 164.954C39.9641 164.954 39.496 164.771 39.1574 164.432L38.7332 164.857C39.2072 165.331 39.8406 165.554 40.5977 165.554V164.954ZM39.1574 164.432C38.8103 164.085 38.6359 163.659 38.6359 163.133H38.0359C38.0359 163.81 38.2678 164.391 38.7332 164.857L39.1574 164.432ZM53.418 166.484V166.784H53.6319L53.7016 166.582L53.418 166.484ZM50.3828 166.484L50.0992 166.387L49.9621 166.784H50.3828V166.484ZM56.7695 147.957V147.657H56.5556L56.4859 147.859L56.7695 147.957ZM59.8047 147.957L60.0883 148.055L60.2254 147.657H59.8047V147.957ZM53.418 166.184H50.3828V166.784H53.418V166.184ZM50.6664 166.582L57.0532 148.055L56.4859 147.859L50.0992 166.387L50.6664 166.582ZM56.7695 148.257H59.8047V147.657H56.7695V148.257ZM59.5211 147.859L53.1343 166.387L53.7016 166.582L60.0883 148.055L59.5211 147.859ZM64.7383 152.34V152.04H64.4383V152.34H64.7383ZM71.6406 152.34H71.9406V152.04H71.6406V152.34ZM71.6406 162.371H71.3406V162.671H71.6406V162.371ZM75.0742 162.371H75.3742V162.071H75.0742V162.371ZM75.0742 165.02V165.32H75.3742V165.02H75.0742ZM64.7383 165.02H64.4383V165.32H64.7383V165.02ZM64.7383 162.371V162.071H64.4383V162.371H64.7383ZM68.3477 162.371V162.671H68.6477V162.371H68.3477ZM68.3477 155H68.6477V154.7H68.3477V155ZM64.7383 155H64.4383V155.3H64.7383V155ZM68.2422 148.402L67.9664 148.284L67.9644 148.289L68.2422 148.402ZM68.6289 147.84L68.4276 147.617L68.422 147.623L68.6289 147.84ZM69.2148 147.488L69.1116 147.207L69.1084 147.208L69.2148 147.488ZM71.3594 147.852L71.1497 148.066L71.1549 148.071L71.3594 147.852ZM71.3594 150.348L71.5664 150.565L71.5665 150.565L71.3594 150.348ZM69.2148 150.699L69.1084 150.98L69.1116 150.981L69.2148 150.699ZM68.6289 150.336L68.8359 150.119L68.8302 150.113L68.6289 150.336ZM68.2422 149.797L67.9627 149.907L67.968 149.919L68.2422 149.797ZM64.7383 152.64H71.6406V152.04H64.7383V152.64ZM71.3406 152.34V162.371H71.9406V152.34H71.3406ZM71.6406 162.671H75.0742V162.071H71.6406V162.671ZM74.7742 162.371V165.02H75.3742V162.371H74.7742ZM75.0742 164.72H64.7383V165.32H75.0742V164.72ZM65.0383 165.02V162.371H64.4383V165.02H65.0383ZM64.7383 162.671H68.3477V162.071H64.7383V162.671ZM68.6477 162.371V155H68.0477V162.371H68.6477ZM68.3477 154.7H64.7383V155.3H68.3477V154.7ZM65.0383 155V152.34H64.4383V155H65.0383ZM68.4133 149.094C68.4133 148.879 68.4501 148.687 68.52 148.516L67.9644 148.289C67.8624 148.539 67.8133 148.809 67.8133 149.094H68.4133ZM68.5179 148.521C68.5965 148.337 68.7026 148.184 68.8358 148.057L68.422 147.623C68.2271 147.808 68.0754 148.03 67.9664 148.284L68.5179 148.521ZM68.8302 148.062C68.964 147.941 69.1263 147.843 69.3212 147.769L69.1084 147.208C68.8503 147.306 68.622 147.442 68.4276 147.617L68.8302 148.062ZM69.3181 147.77C69.5155 147.698 69.7378 147.659 69.9883 147.659V147.059C69.6762 147.059 69.3829 147.107 69.1116 147.207L69.3181 147.77ZM69.9883 147.659C70.5072 147.659 70.8822 147.805 71.1498 148.066L71.569 147.637C71.1647 147.242 70.6256 147.059 69.9883 147.059V147.659ZM71.1549 148.071C71.4324 148.33 71.575 148.662 71.575 149.094H72.175C72.175 148.51 71.9738 148.014 71.5639 147.632L71.1549 148.071ZM71.575 149.094C71.575 149.526 71.4323 149.863 71.1522 150.131L71.5665 150.565C71.974 150.176 72.175 149.677 72.175 149.094H71.575ZM71.1524 150.131C70.8851 150.385 70.5092 150.528 69.9883 150.528V151.128C70.6236 151.128 71.1618 150.951 71.5664 150.565L71.1524 150.131ZM69.9883 150.528C69.7378 150.528 69.5155 150.49 69.3181 150.418L69.1116 150.981C69.3829 151.08 69.6762 151.128 69.9883 151.128V150.528ZM69.3212 150.419C69.1294 150.346 68.9689 150.245 68.8358 150.119L68.422 150.553C68.617 150.739 68.8471 150.881 69.1084 150.98L69.3212 150.419ZM68.8302 150.113C68.6985 149.994 68.5938 149.849 68.5163 149.675L67.968 149.919C68.078 150.166 68.2312 150.381 68.4276 150.558L68.8302 150.113ZM68.5214 149.687C68.4501 149.506 68.4133 149.309 68.4133 149.094H67.8133C67.8133 149.379 67.8624 149.651 67.963 149.907L68.5214 149.687ZM78.2852 165.02H77.9852V165.32H78.2852V165.02ZM78.2852 152.34V152.04H77.9852V152.34H78.2852ZM81.2383 152.34L81.5364 152.306L81.5062 152.04H81.2383V152.34ZM81.4375 154.098L81.1394 154.131L81.2287 154.919L81.6833 154.27L81.4375 154.098ZM82.5977 152.926L82.4242 152.681L82.4233 152.682L82.5977 152.926ZM88.3867 153.277L88.607 153.074L88.603 153.069L88.3867 153.277ZM89.2773 154.871L88.992 154.964L88.9934 154.968L89.2773 154.871ZM89.6055 165.02V165.32H89.9055V165.02H89.6055ZM86.3477 165.02H86.0477V165.32H86.3477V165.02ZM86.1719 156.031L85.8872 156.126L85.8901 156.134L86.1719 156.031ZM84.9297 154.871L84.8533 155.161L84.8605 155.163L84.9297 154.871ZM83.0547 154.859L82.9779 154.569L82.9758 154.57L83.0547 154.859ZM82.3633 155.176L82.5212 155.431L82.5277 155.427L82.534 155.422L82.3633 155.176ZM81.5547 156.008L81.3016 155.847L81.2547 155.92V156.008H81.5547ZM81.5547 165.02V165.32H81.8547V165.02H81.5547ZM78.5852 165.02V152.34H77.9852V165.02H78.5852ZM78.2852 152.64H81.2383V152.04H78.2852V152.64ZM80.9402 152.374L81.1394 154.131L81.7356 154.064L81.5364 152.306L80.9402 152.374ZM81.6833 154.27C81.8377 154.049 82.0062 153.848 82.1887 153.665L81.7644 153.241C81.5563 153.449 81.3655 153.677 81.1917 153.926L81.6833 154.27ZM82.1887 153.665C82.3726 153.481 82.5671 153.316 82.772 153.17L82.4233 152.682C82.1907 152.848 81.9711 153.034 81.7644 153.241L82.1887 153.665ZM82.7711 153.171C83.1203 152.923 83.5023 152.734 83.9185 152.602L83.7378 152.03C83.2633 152.18 82.825 152.397 82.4243 152.681L82.7711 153.171ZM83.9185 152.602C84.3326 152.472 84.7746 152.405 85.2461 152.405V151.805C84.7176 151.805 84.2143 151.88 83.7378 152.03L83.9185 152.602ZM85.2461 152.405C85.8573 152.405 86.409 152.495 86.9041 152.67L87.1038 152.104C86.5364 151.904 85.9161 151.805 85.2461 151.805V152.405ZM86.9041 152.67C87.3912 152.842 87.8123 153.113 88.1705 153.485L88.603 153.069C88.1799 152.629 87.6791 152.307 87.1038 152.104L86.9041 152.67ZM88.1664 153.481C88.5143 153.857 88.7918 154.348 88.9921 154.964L89.5626 154.778C89.341 154.097 89.0247 153.526 88.607 153.074L88.1664 153.481ZM88.9934 154.968C89.1985 155.568 89.3055 156.315 89.3055 157.215H89.9055C89.9055 156.271 89.7937 155.455 89.5612 154.774L88.9934 154.968ZM89.3055 157.215V165.02H89.9055V157.215H89.3055ZM89.6055 164.72H86.3477V165.32H89.6055V164.72ZM86.6477 165.02V157.262H86.0477V165.02H86.6477ZM86.6477 157.262C86.6477 156.741 86.5871 156.293 86.4536 155.928L85.8901 156.134C85.991 156.41 86.0477 156.782 86.0477 157.262H86.6477ZM86.4565 155.936C86.3342 155.57 86.1489 155.263 85.8907 155.034L85.4921 155.482C85.6558 155.628 85.7908 155.837 85.8873 156.126L86.4565 155.936ZM85.8907 155.034C85.6397 154.81 85.34 154.66 84.9988 154.579L84.8605 155.163C85.1131 155.223 85.3212 155.33 85.4921 155.482L85.8907 155.034ZM85.006 154.581C84.6795 154.495 84.3172 154.454 83.9219 154.454V155.054C84.2766 155.054 84.5862 155.091 84.8533 155.161L85.006 154.581ZM83.9219 154.454C83.5869 154.454 83.2717 154.492 82.9779 154.569L83.1315 155.149C83.3689 155.087 83.6318 155.054 83.9219 155.054V154.454ZM82.9758 154.57C82.6878 154.648 82.4258 154.768 82.1925 154.929L82.534 155.422C82.707 155.303 82.9059 155.211 83.1336 155.149L82.9758 154.57ZM82.2054 154.921C82.0191 155.036 81.8505 155.174 81.6999 155.333L82.1361 155.745C82.2511 155.623 82.3793 155.519 82.5212 155.431L82.2054 154.921ZM81.6999 155.333C81.5533 155.488 81.4206 155.66 81.3016 155.847L81.8078 156.169C81.9075 156.012 82.017 155.871 82.1361 155.745L81.6999 155.333ZM81.2547 156.008V165.02H81.8547V156.008H81.2547ZM81.5547 164.72H78.2852V165.32H81.5547V164.72ZM100.738 161.023L100.478 161.174L100.485 161.184L100.738 161.023ZM100.27 160.602L100.421 160.343L100.411 160.337L100.27 160.602ZM97.8906 159.922L97.8318 160.216L97.8356 160.217L97.8906 159.922ZM95.8516 159.371L95.747 159.652L95.7513 159.654L95.8516 159.371ZM94.2812 158.551L94.4585 158.309L94.4556 158.307L94.2812 158.551ZM93.25 157.461L92.991 157.612L92.9932 157.616L93.25 157.461ZM100.703 152.422L100.617 152.709L100.62 152.71L100.703 152.422ZM102.496 153.266L102.677 153.027L102.673 153.023L102.496 153.266ZM103.996 156.195V156.495H104.296V156.195H103.996ZM100.738 156.195H100.438V156.495H100.738V156.195ZM100.633 155.609L100.352 155.715L100.353 155.719L100.633 155.609ZM100.316 155.105L100.534 154.899L100.529 154.893L100.316 155.105ZM99.5195 154.637L99.4186 154.919L99.4207 154.92L99.5195 154.637ZM96.5547 154.906L96.7312 155.149L96.7347 155.146L96.5547 154.906ZM96.1562 155.352L95.8928 155.208L95.8905 155.212L96.1562 155.352ZM96.1445 156.406L95.8736 156.535L95.8762 156.54L96.1445 156.406ZM96.5664 156.828L96.7353 156.58L96.7236 156.573L96.5664 156.828ZM97.375 157.191L97.284 157.477L97.29 157.479L97.375 157.191ZM98.6875 157.461L98.7358 157.165L98.7311 157.164L98.6875 157.461ZM102.52 158.691L102.684 158.441L102.681 158.439L102.52 158.691ZM103.633 159.828L103.375 159.982L103.378 159.987L103.633 159.828ZM103.633 162.957L103.373 162.808L103.372 162.809L103.633 162.957ZM102.496 164.176L102.666 164.423L102.668 164.422L102.496 164.176ZM100.691 164.984L100.769 165.274L100.772 165.273L100.691 164.984ZM95.8047 164.891L95.7071 165.174L95.708 165.175L95.8047 164.891ZM93.9766 163.906L94.1675 163.675L94.1653 163.673L93.9766 163.906ZM92.8516 162.547L92.5816 162.678L92.5841 162.683L92.8516 162.547ZM92.4766 161V160.7H92.1766V161H92.4766ZM95.582 161L95.8813 160.98L95.8623 160.7H95.582V161ZM95.8633 161.891L95.6124 162.055L95.6149 162.059L95.8633 161.891ZM96.4961 162.477L96.6516 162.22L96.6458 162.217L96.4961 162.477ZM97.375 162.816L97.3121 163.11L97.3135 163.11L97.375 162.816ZM99.5078 162.816L99.5737 163.109L99.5789 163.108L99.5078 162.816ZM100.293 162.512L100.45 162.767L100.455 162.764L100.293 162.512ZM100.727 162.078L100.471 161.92L100.466 161.929L100.727 162.078ZM101.179 161.539C101.179 161.294 101.119 161.065 100.992 160.863L100.485 161.184C100.545 161.279 100.579 161.394 100.579 161.539H101.179ZM100.998 160.873C100.876 160.662 100.671 160.489 100.421 160.343L100.118 160.86C100.321 160.98 100.429 161.088 100.479 161.174L100.998 160.873ZM100.411 160.337C100.151 160.198 99.8203 160.074 99.4262 159.962L99.2613 160.538C99.6328 160.645 99.9194 160.755 100.128 160.866L100.411 160.337ZM99.4262 159.962C99.0311 159.849 98.5368 159.737 97.9457 159.627L97.8356 160.217C98.4163 160.325 98.8908 160.433 99.2613 160.538L99.4262 159.962ZM97.9495 159.628C97.2192 159.482 96.5536 159.302 95.9518 159.088L95.7513 159.654C96.3839 159.878 97.0777 160.065 97.8318 160.216L97.9495 159.628ZM95.9561 159.09C95.3677 158.871 94.8698 158.61 94.4585 158.309L94.104 158.793C94.5677 159.132 95.1167 159.418 95.747 159.652L95.9561 159.09ZM94.4556 158.307C94.0477 158.015 93.7334 157.681 93.5068 157.306L92.9932 157.616C93.2666 158.069 93.6398 158.461 94.1069 158.795L94.4556 158.307ZM93.509 157.309C93.2969 156.947 93.1867 156.524 93.1867 156.031H92.5867C92.5867 156.617 92.7188 157.147 92.991 157.612L93.509 157.309ZM93.1867 156.031C93.1867 155.558 93.2993 155.105 93.5274 154.671L92.9961 154.392C92.7242 154.91 92.5867 155.458 92.5867 156.031H93.1867ZM93.5274 154.671C93.7553 154.236 94.0848 153.851 94.5224 153.515L94.1573 153.039C93.6574 153.423 93.2682 153.873 92.9961 154.392L93.5274 154.671ZM94.5224 153.515C94.9585 153.181 95.496 152.91 96.1406 152.708L95.9609 152.136C95.2618 152.355 94.6587 152.655 94.1573 153.039L94.5224 153.515ZM96.1406 152.708C96.7783 152.508 97.5051 152.405 98.3242 152.405V151.805C97.4558 151.805 96.667 151.914 95.9609 152.136L96.1406 152.708ZM98.3242 152.405C99.1835 152.405 99.9467 152.508 100.617 152.709L100.789 152.135C100.053 151.914 99.2305 151.805 98.3242 151.805V152.405ZM100.62 152.71C101.296 152.905 101.86 153.173 102.319 153.508L102.673 153.023C102.147 152.64 101.517 152.345 100.786 152.134L100.62 152.71ZM102.315 153.505C102.766 153.847 103.107 154.247 103.343 154.704L103.876 154.429C103.596 153.886 103.194 153.419 102.677 153.027L102.315 153.505ZM103.343 154.704C103.578 155.16 103.696 155.655 103.696 156.195H104.296C104.296 155.564 104.157 154.973 103.876 154.429L103.343 154.704ZM103.996 155.895H100.738V156.495H103.996V155.895ZM101.038 156.195C101.038 155.95 100.997 155.718 100.912 155.5L100.353 155.719C100.409 155.86 100.438 156.018 100.438 156.195H101.038ZM100.914 155.504C100.829 155.278 100.702 155.076 100.534 154.899L100.099 155.312C100.212 155.432 100.296 155.566 100.352 155.715L100.914 155.504ZM100.529 154.893C100.293 154.658 99.9851 154.481 99.6183 154.353L99.4207 154.92C99.7259 155.026 99.9487 155.162 100.104 155.318L100.529 154.893ZM99.6204 154.354C99.2509 154.222 98.8162 154.161 98.3242 154.161V154.761C98.7697 154.761 99.1319 154.817 99.4186 154.919L99.6204 154.354ZM98.3242 154.161C97.9072 154.161 97.5328 154.202 97.2049 154.288L97.3576 154.868C97.6234 154.798 97.9443 154.761 98.3242 154.761V154.161ZM97.2049 154.288C96.8816 154.373 96.6012 154.496 96.3747 154.666L96.7347 155.146C96.8832 155.035 97.0872 154.939 97.3576 154.868L97.2049 154.288ZM96.3782 154.664C96.1735 154.813 96.0097 154.994 95.8929 155.208L96.4196 155.495C96.4903 155.366 96.5921 155.25 96.7311 155.149L96.3782 154.664ZM95.8905 155.212C95.7818 155.42 95.7273 155.644 95.7273 155.879H96.3273C96.3273 155.739 96.3588 155.611 96.422 155.491L95.8905 155.212ZM95.7273 155.879C95.7273 156.11 95.7757 156.33 95.8737 156.535L96.4154 156.277C96.3571 156.155 96.3273 156.023 96.3273 155.879H95.7273ZM95.8762 156.54C95.9869 156.762 96.1752 156.94 96.4092 157.084L96.7236 156.573C96.5513 156.467 96.4584 156.363 96.4129 156.272L95.8762 156.54ZM96.3977 157.076C96.6261 157.231 96.9256 157.363 97.284 157.477L97.466 156.906C97.1369 156.801 96.8974 156.69 96.7351 156.58L96.3977 157.076ZM97.29 157.479C97.6522 157.586 98.1048 157.678 98.6439 157.758L98.7311 157.164C98.2077 157.087 97.7853 157 97.46 156.904L97.29 157.479ZM98.6392 157.757C99.3938 157.88 100.092 158.038 100.735 158.229L100.906 157.654C100.236 157.454 99.5124 157.292 98.7358 157.165L98.6392 157.757ZM100.735 158.229C101.37 158.418 101.909 158.657 102.358 158.944L102.681 158.439C102.177 158.116 101.584 157.856 100.906 157.654L100.735 158.229ZM102.355 158.942C102.797 159.232 103.135 159.579 103.375 159.982L103.89 159.674C103.599 159.186 103.195 158.775 102.684 158.441L102.355 158.942ZM103.378 159.987C103.617 160.369 103.743 160.835 103.743 161.398H104.343C104.343 160.743 104.195 160.162 103.887 159.669L103.378 159.987ZM103.743 161.398C103.743 161.91 103.619 162.378 103.373 162.808L103.893 163.106C104.193 162.583 104.343 162.012 104.343 161.398H103.743ZM103.372 162.809C103.131 163.235 102.784 163.609 102.324 163.93L102.668 164.422C103.193 164.055 103.604 163.617 103.894 163.105L103.372 162.809ZM102.326 163.929C101.858 164.25 101.289 164.507 100.611 164.695L100.772 165.273C101.501 165.071 102.134 164.789 102.666 164.423L102.326 163.929ZM100.614 164.695C99.9405 164.874 99.1819 164.966 98.3359 164.966V165.566C99.2244 165.566 100.036 165.47 100.769 165.274L100.614 164.695ZM98.3359 164.966C97.4085 164.966 96.5984 164.844 95.9014 164.607L95.708 165.175C96.4797 165.437 97.3572 165.566 98.3359 165.566V164.966ZM95.9023 164.607C95.203 164.366 94.627 164.054 94.1675 163.675L93.7856 164.138C94.3105 164.571 94.9533 164.915 95.7071 165.174L95.9023 164.607ZM94.1653 163.673C93.7022 163.298 93.3557 162.877 93.1191 162.411L92.5841 162.683C92.863 163.232 93.2665 163.717 93.7878 164.139L94.1653 163.673ZM93.1215 162.416C92.8891 161.937 92.7766 161.465 92.7766 161H92.1766C92.1766 161.566 92.3141 162.126 92.5816 162.678L93.1215 162.416ZM92.4766 161.3H95.582V160.7H92.4766V161.3ZM95.2827 161.02C95.3091 161.408 95.4161 161.756 95.6125 162.055L96.1141 161.726C95.9824 161.525 95.9018 161.28 95.8813 160.98L95.2827 161.02ZM95.6149 162.059C95.8049 162.339 96.0499 162.566 96.3464 162.737L96.6458 162.217C96.4267 162.09 96.2498 161.926 96.1117 161.722L95.6149 162.059ZM96.3406 162.733C96.6301 162.909 96.955 163.033 97.3121 163.11L97.4379 162.523C97.1388 162.459 96.8777 162.357 96.6516 162.22L96.3406 162.733ZM97.3135 163.11C97.6702 163.185 98.0345 163.222 98.4062 163.222V162.622C98.0748 162.622 97.7517 162.589 97.4365 162.523L97.3135 163.11ZM98.4062 163.222C98.8437 163.222 99.234 163.186 99.5737 163.109L99.442 162.524C99.1566 162.588 98.8125 162.622 98.4062 162.622V163.222ZM99.5789 163.108C99.9189 163.025 100.212 162.914 100.45 162.767L100.136 162.256C99.9673 162.36 99.7374 162.452 99.4367 162.525L99.5789 163.108ZM100.455 162.764C100.682 162.619 100.864 162.442 100.987 162.227L100.466 161.929C100.401 162.043 100.295 162.154 100.131 162.259L100.455 162.764ZM100.982 162.236C101.113 162.024 101.179 161.789 101.179 161.539H100.579C100.579 161.679 100.543 161.804 100.471 161.92L100.982 162.236ZM115.035 165.02L114.767 165.154L114.85 165.32H115.035V165.02ZM114.695 163.836L114.991 163.785L114.887 163.184L114.475 163.633L114.695 163.836ZM113.301 164.832L113.179 164.558L113.176 164.559L113.301 164.832ZM112.352 165.137L112.291 164.843L112.285 164.844L112.352 165.137ZM109.445 164.973L109.347 165.256L109.348 165.256L109.445 164.973ZM107.137 162.992L106.865 163.119L106.866 163.121L107.137 162.992ZM107.219 159.605L107.486 159.741L107.487 159.74L107.219 159.605ZM108.449 158.258L108.611 158.51L108.613 158.509L108.449 158.258ZM110.266 157.531L110.332 157.824L110.335 157.823L110.266 157.531ZM114.578 157.273V157.573H114.878V157.273H114.578ZM114.438 155.727L114.158 155.835L114.159 155.838L114.438 155.727ZM114.016 155.105L113.813 155.326L113.813 155.327L114.016 155.105ZM113.277 154.695L113.178 154.978L113.187 154.981L113.277 154.695ZM111.367 154.672L111.457 154.958L111.465 154.956L111.367 154.672ZM110.758 155.012L110.964 155.23L110.964 155.229L110.758 155.012ZM110.441 155.492L110.16 155.387L110.157 155.397L110.441 155.492ZM110.348 156.113V156.413H110.648V156.113H110.348ZM107.09 156.113H106.79V156.413H107.09V156.113ZM107.441 154.578L107.173 154.444L107.171 154.447L107.441 154.578ZM108.496 153.301L108.683 153.535L108.685 153.534L108.496 153.301ZM110.16 152.434L110.252 152.719L110.254 152.719L110.16 152.434ZM114.566 152.387L114.484 152.675L114.485 152.675L114.566 152.387ZM117.426 154.613L117.156 154.744L117.157 154.746L117.426 154.613ZM118.34 164.82H118.64V164.748L118.607 164.684L118.34 164.82ZM118.34 165.02V165.32H118.64V165.02H118.34ZM114.191 161.891L114.398 162.108L114.404 162.103L114.191 161.891ZM114.578 161.398L114.839 161.547L114.878 161.478V161.398H114.578ZM114.578 159.219H114.878V158.919H114.578V159.219ZM111.613 159.371L111.689 159.661L111.695 159.66L111.613 159.371ZM110.734 159.77L110.553 159.53L110.548 159.534L110.734 159.77ZM110.23 160.414L110.504 160.538L110.505 160.534L110.23 160.414ZM110.184 161.844L109.905 161.955L109.908 161.962L109.911 161.969L110.184 161.844ZM110.547 162.324L110.352 162.553L110.359 162.558L110.547 162.324ZM111.121 162.629L111.023 162.913L111.035 162.916L111.121 162.629ZM115.303 164.885C115.236 164.75 115.176 164.59 115.126 164.402L114.546 164.558C114.605 164.777 114.678 164.976 114.767 165.154L115.303 164.885ZM115.126 164.402C115.074 164.209 115.029 164.003 114.991 163.785L114.4 163.887C114.44 164.122 114.489 164.346 114.546 164.558L115.126 164.402ZM114.475 163.633C114.309 163.813 114.117 163.983 113.897 164.145L114.252 164.629C114.5 164.446 114.722 164.25 114.916 164.039L114.475 163.633ZM113.897 164.145C113.681 164.303 113.442 164.441 113.179 164.558L113.423 165.106C113.722 164.973 113.999 164.814 114.252 164.629L113.897 164.145ZM113.176 164.559C112.909 164.682 112.615 164.777 112.291 164.843L112.412 165.431C112.776 165.356 113.114 165.248 113.426 165.105L113.176 164.559ZM112.285 164.844C111.966 164.917 111.617 164.954 111.238 164.954V165.554C111.656 165.554 112.05 165.513 112.418 165.429L112.285 164.844ZM111.238 164.954C110.619 164.954 110.055 164.864 109.543 164.689L109.348 165.256C109.93 165.456 110.561 165.554 111.238 165.554V164.954ZM109.544 164.689C109.037 164.513 108.606 164.269 108.246 163.96L107.855 164.415C108.277 164.778 108.776 165.057 109.347 165.256L109.544 164.689ZM108.246 163.96C107.887 163.651 107.608 163.286 107.408 162.864L106.866 163.121C107.103 163.62 107.433 164.052 107.855 164.415L108.246 163.96ZM107.409 162.865C107.209 162.439 107.109 161.974 107.109 161.469H106.509C106.509 162.057 106.627 162.608 106.865 163.119L107.409 162.865ZM107.109 161.469C107.109 160.805 107.237 160.232 107.486 159.741L106.951 159.47C106.653 160.057 106.509 160.726 106.509 161.469H107.109ZM107.487 159.74C107.735 159.244 108.107 158.834 108.611 158.51L108.287 158.005C107.698 158.384 107.25 158.873 106.95 159.471L107.487 159.74ZM108.613 158.509C109.069 158.212 109.64 157.982 110.332 157.824L110.199 157.239C109.454 157.409 108.814 157.663 108.286 158.006L108.613 158.509ZM110.335 157.823C111.034 157.658 111.842 157.573 112.762 157.573V156.973C111.807 156.973 110.951 157.061 110.197 157.239L110.335 157.823ZM112.762 157.573H114.578V156.973H112.762V157.573ZM114.878 157.273V156.523H114.278V157.273H114.878ZM114.878 156.523C114.878 156.195 114.826 155.891 114.716 155.615L114.159 155.838C114.236 156.031 114.278 156.258 114.278 156.523H114.878ZM114.717 155.618C114.607 155.334 114.441 155.088 114.218 154.884L113.813 155.327C113.966 155.467 114.08 155.635 114.158 155.835L114.717 155.618ZM114.219 154.885C113.986 154.671 113.699 154.514 113.368 154.409L113.187 154.981C113.449 155.064 113.655 155.181 113.813 155.326L114.219 154.885ZM113.377 154.412C113.048 154.297 112.673 154.243 112.258 154.243V154.843C112.623 154.843 112.928 154.891 113.178 154.978L113.377 154.412ZM112.258 154.243C111.89 154.243 111.559 154.289 111.27 154.388L111.465 154.956C111.676 154.883 111.938 154.843 112.258 154.843V154.243ZM111.278 154.386C110.993 154.474 110.747 154.608 110.551 154.794L110.964 155.229C111.081 155.118 111.241 155.026 111.457 154.958L111.278 154.386ZM110.552 154.794C110.377 154.959 110.246 155.158 110.161 155.387L110.722 155.598C110.777 155.451 110.858 155.33 110.964 155.23L110.552 154.794ZM110.157 155.397C110.083 155.62 110.048 155.859 110.048 156.113H110.648C110.648 155.914 110.675 155.74 110.726 155.587L110.157 155.397ZM110.348 155.813H107.09V156.413H110.348V155.813ZM107.39 156.113C107.39 155.619 107.497 155.152 107.711 154.709L107.171 154.447C106.917 154.973 106.79 155.529 106.79 156.113H107.39ZM107.71 154.712C107.931 154.27 108.253 153.878 108.683 153.535L108.309 153.066C107.817 153.458 107.436 153.917 107.173 154.444L107.71 154.712ZM108.685 153.534C109.105 153.194 109.625 152.921 110.252 152.719L110.068 152.148C109.383 152.368 108.794 152.673 108.307 153.068L108.685 153.534ZM110.254 152.719C110.882 152.512 111.607 152.405 112.434 152.405V151.805C111.557 151.805 110.766 151.918 110.066 152.149L110.254 152.719ZM112.434 152.405C113.175 152.405 113.858 152.496 114.484 152.675L114.649 152.098C113.963 151.902 113.224 151.805 112.434 151.805V152.405ZM114.485 152.675C115.118 152.854 115.657 153.116 116.108 153.458L116.47 152.98C115.952 152.587 115.343 152.294 114.648 152.098L114.485 152.675ZM116.108 153.458C116.553 153.796 116.903 154.223 117.156 154.744L117.696 154.482C117.402 153.878 116.993 153.376 116.47 152.98L116.108 153.458ZM117.157 154.746C117.406 155.252 117.536 155.85 117.536 156.547H118.136C118.136 155.775 117.992 155.084 117.695 154.481L117.157 154.746ZM117.536 156.547V161.984H118.136V156.547H117.536ZM117.536 161.984C117.536 162.675 117.579 163.258 117.67 163.729L118.259 163.615C118.178 163.195 118.136 162.653 118.136 161.984H117.536ZM117.67 163.729C117.76 164.195 117.893 164.606 118.073 164.957L118.607 164.684C118.459 164.394 118.341 164.039 118.259 163.615L117.67 163.729ZM118.04 164.82V165.02H118.64V164.82H118.04ZM118.34 164.72H115.035V165.32H118.34V164.72ZM111.93 163.034C112.282 163.034 112.614 162.992 112.924 162.906L112.763 162.328C112.511 162.398 112.234 162.434 111.93 162.434V163.034ZM112.924 162.906C113.225 162.823 113.501 162.713 113.75 162.575L113.461 162.05C113.257 162.162 113.025 162.255 112.763 162.328L112.924 162.906ZM113.75 162.575C113.996 162.439 114.213 162.284 114.398 162.108L113.985 161.673C113.841 161.81 113.668 161.936 113.461 162.05L113.75 162.575ZM114.404 162.103C114.582 161.924 114.729 161.739 114.839 161.547L114.318 161.25C114.24 161.386 114.129 161.529 113.979 161.678L114.404 162.103ZM114.878 161.398V159.219H114.278V161.398H114.878ZM114.578 158.919H112.914V159.519H114.578V158.919ZM112.914 158.919C112.388 158.919 111.925 158.971 111.532 159.082L111.695 159.66C112.02 159.568 112.425 159.519 112.914 159.519V158.919ZM111.538 159.081C111.151 159.182 110.819 159.329 110.553 159.531L110.916 160.009C111.103 159.867 111.357 159.748 111.689 159.661L111.538 159.081ZM110.548 159.534C110.285 159.743 110.086 159.996 109.956 160.294L110.505 160.534C110.594 160.332 110.73 160.156 110.921 160.005L110.548 159.534ZM109.957 160.291C109.829 160.575 109.766 160.883 109.766 161.211H110.366C110.366 160.961 110.414 160.738 110.504 160.538L109.957 160.291ZM109.766 161.211C109.766 161.473 109.812 161.722 109.905 161.955L110.462 161.732C110.399 161.575 110.366 161.402 110.366 161.211H109.766ZM109.911 161.969C110.015 162.196 110.163 162.391 110.353 162.553L110.741 162.096C110.619 161.991 110.524 161.867 110.456 161.719L109.911 161.969ZM110.359 162.558C110.547 162.709 110.77 162.825 111.023 162.913L111.219 162.345C111.019 162.276 110.859 162.19 110.734 162.09L110.359 162.558ZM111.035 162.916C111.303 162.997 111.603 163.034 111.93 163.034V162.434C111.647 162.434 111.408 162.402 111.207 162.342L111.035 162.916ZM125.418 161.609L125.634 161.817L125.636 161.815L125.418 161.609ZM128.734 161.598L128.518 161.806L128.52 161.808L128.734 161.598ZM128.723 164.656L128.933 164.87L128.933 164.87L128.723 164.656ZM125.12 163.133C125.12 162.605 125.292 162.173 125.634 161.817L125.202 161.401C124.747 161.874 124.52 162.458 124.52 163.133H125.12ZM125.636 161.815C125.965 161.467 126.434 161.277 127.082 161.277V160.677C126.308 160.677 125.667 160.908 125.2 161.403L125.636 161.815ZM127.082 161.277C127.723 161.277 128.189 161.463 128.518 161.806L128.951 161.39C128.483 160.904 127.847 160.677 127.082 160.677V161.277ZM128.52 161.808C128.868 162.163 129.044 162.598 129.044 163.133H129.644C129.644 162.449 129.413 161.861 128.949 161.388L128.52 161.808ZM129.044 163.133C129.044 163.666 128.866 164.095 128.513 164.442L128.933 164.87C129.407 164.405 129.644 163.818 129.644 163.133H129.044ZM128.513 164.442C128.174 164.774 127.708 164.954 127.082 164.954V165.554C127.831 165.554 128.459 165.335 128.933 164.87L128.513 164.442ZM127.082 164.954C126.448 164.954 125.98 164.771 125.642 164.432L125.218 164.857C125.692 165.331 126.325 165.554 127.082 165.554V164.954ZM125.642 164.432C125.295 164.085 125.12 163.659 125.12 163.133H124.52C124.52 163.81 124.752 164.391 125.218 164.857L125.642 164.432ZM143.98 161.023L143.721 161.174L143.727 161.184L143.98 161.023ZM143.512 160.602L143.664 160.343L143.653 160.337L143.512 160.602ZM141.133 159.922L141.074 160.216L141.078 160.217L141.133 159.922ZM139.094 159.371L138.989 159.652L138.994 159.654L139.094 159.371ZM137.523 158.551L137.701 158.309L137.698 158.307L137.523 158.551ZM136.492 157.461L136.233 157.612L136.235 157.616L136.492 157.461ZM143.945 152.422L143.859 152.709L143.862 152.71L143.945 152.422ZM145.738 153.266L145.92 153.027L145.915 153.023L145.738 153.266ZM147.238 156.195V156.495H147.538V156.195H147.238ZM143.98 156.195H143.68V156.495H143.98V156.195ZM143.875 155.609L143.594 155.715L143.596 155.719L143.875 155.609ZM143.559 155.105L143.776 154.899L143.771 154.893L143.559 155.105ZM142.762 154.637L142.661 154.919L142.663 154.92L142.762 154.637ZM139.797 154.906L139.973 155.149L139.977 155.146L139.797 154.906ZM139.398 155.352L139.135 155.208L139.133 155.212L139.398 155.352ZM139.387 156.406L139.116 156.535L139.118 156.54L139.387 156.406ZM139.809 156.828L139.977 156.58L139.966 156.573L139.809 156.828ZM140.617 157.191L140.526 157.477L140.532 157.479L140.617 157.191ZM141.93 157.461L141.978 157.165L141.973 157.164L141.93 157.461ZM145.762 158.691L145.926 158.441L145.923 158.439L145.762 158.691ZM146.875 159.828L146.617 159.982L146.621 159.987L146.875 159.828ZM146.875 162.957L146.615 162.808L146.614 162.809L146.875 162.957ZM145.738 164.176L145.908 164.423L145.91 164.422L145.738 164.176ZM143.934 164.984L144.011 165.274L144.014 165.273L143.934 164.984ZM139.047 164.891L138.949 165.174L138.95 165.175L139.047 164.891ZM137.219 163.906L137.41 163.675L137.408 163.673L137.219 163.906ZM136.094 162.547L135.824 162.678L135.826 162.683L136.094 162.547ZM135.719 161V160.7H135.419V161H135.719ZM138.824 161L139.124 160.98L139.104 160.7H138.824V161ZM139.105 161.891L138.855 162.055L138.857 162.059L139.105 161.891ZM139.738 162.477L139.894 162.22L139.888 162.217L139.738 162.477ZM140.617 162.816L140.554 163.11L140.556 163.11L140.617 162.816ZM142.75 162.816L142.816 163.109L142.821 163.108L142.75 162.816ZM143.535 162.512L143.692 162.767L143.697 162.764L143.535 162.512ZM143.969 162.078L143.714 161.92L143.708 161.929L143.969 162.078ZM144.421 161.539C144.421 161.294 144.361 161.065 144.234 160.863L143.727 161.184C143.787 161.279 143.821 161.394 143.821 161.539H144.421ZM144.24 160.873C144.118 160.662 143.913 160.489 143.663 160.343L143.36 160.86C143.564 160.98 143.671 161.088 143.721 161.174L144.24 160.873ZM143.653 160.337C143.393 160.198 143.063 160.074 142.668 159.962L142.504 160.538C142.875 160.645 143.162 160.755 143.371 160.866L143.653 160.337ZM142.668 159.962C142.273 159.849 141.779 159.737 141.188 159.627L141.078 160.217C141.659 160.325 142.133 160.433 142.504 160.538L142.668 159.962ZM141.192 159.628C140.461 159.482 139.796 159.302 139.194 159.088L138.994 159.654C139.626 159.878 140.32 160.065 141.074 160.216L141.192 159.628ZM139.198 159.09C138.61 158.871 138.112 158.61 137.701 158.309L137.346 158.793C137.81 159.132 138.359 159.418 138.989 159.652L139.198 159.09ZM137.698 158.307C137.29 158.015 136.976 157.681 136.749 157.306L136.235 157.616C136.509 158.069 136.882 158.461 137.349 158.795L137.698 158.307ZM136.751 157.309C136.539 156.947 136.429 156.524 136.429 156.031H135.829C135.829 156.617 135.961 157.147 136.233 157.612L136.751 157.309ZM136.429 156.031C136.429 155.558 136.541 155.105 136.77 154.671L136.238 154.392C135.966 154.91 135.829 155.458 135.829 156.031H136.429ZM136.77 154.671C136.997 154.236 137.327 153.851 137.765 153.515L137.4 153.039C136.9 153.423 136.51 153.873 136.238 154.392L136.77 154.671ZM137.765 153.515C138.201 153.181 138.738 152.91 139.383 152.708L139.203 152.136C138.504 152.355 137.901 152.655 137.4 153.039L137.765 153.515ZM139.383 152.708C140.021 152.508 140.747 152.405 141.566 152.405V151.805C140.698 151.805 139.909 151.914 139.203 152.136L139.383 152.708ZM141.566 152.405C142.426 152.405 143.189 152.508 143.859 152.709L144.032 152.135C143.295 151.914 142.473 151.805 141.566 151.805V152.405ZM143.862 152.71C144.538 152.905 145.103 153.173 145.561 153.508L145.915 153.023C145.39 152.64 144.759 152.345 144.029 152.134L143.862 152.71ZM145.557 153.505C146.009 153.847 146.349 154.247 146.585 154.704L147.118 154.429C146.838 153.886 146.437 153.419 145.92 153.027L145.557 153.505ZM146.585 154.704C146.82 155.16 146.938 155.655 146.938 156.195H147.538C147.538 155.564 147.399 154.973 147.118 154.429L146.585 154.704ZM147.238 155.895H143.98V156.495H147.238V155.895ZM144.28 156.195C144.28 155.95 144.24 155.718 144.154 155.5L143.596 155.719C143.651 155.86 143.68 156.018 143.68 156.195H144.28ZM144.156 155.504C144.071 155.278 143.944 155.076 143.776 154.899L143.341 155.312C143.454 155.432 143.538 155.566 143.594 155.715L144.156 155.504ZM143.771 154.893C143.536 154.658 143.227 154.481 142.861 154.353L142.663 154.92C142.968 155.026 143.191 155.162 143.346 155.318L143.771 154.893ZM142.863 154.354C142.493 154.222 142.058 154.161 141.566 154.161V154.761C142.012 154.761 142.374 154.817 142.661 154.919L142.863 154.354ZM141.566 154.161C141.149 154.161 140.775 154.202 140.447 154.288L140.6 154.868C140.866 154.798 141.187 154.761 141.566 154.761V154.161ZM140.447 154.288C140.124 154.373 139.843 154.496 139.617 154.666L139.977 155.146C140.125 155.035 140.329 154.939 140.6 154.868L140.447 154.288ZM139.62 154.664C139.416 154.813 139.252 154.994 139.135 155.208L139.662 155.495C139.732 155.366 139.834 155.25 139.973 155.149L139.62 154.664ZM139.133 155.212C139.024 155.42 138.97 155.644 138.97 155.879H139.57C139.57 155.739 139.601 155.611 139.664 155.491L139.133 155.212ZM138.97 155.879C138.97 156.11 139.018 156.33 139.116 156.535L139.658 156.277C139.599 156.155 139.57 156.023 139.57 155.879H138.97ZM139.118 156.54C139.229 156.762 139.417 156.94 139.651 157.084L139.966 156.573C139.794 156.467 139.701 156.363 139.655 156.272L139.118 156.54ZM139.64 157.076C139.868 157.231 140.168 157.363 140.526 157.477L140.708 156.906C140.379 156.801 140.14 156.69 139.977 156.58L139.64 157.076ZM140.532 157.479C140.894 157.586 141.347 157.678 141.886 157.758L141.973 157.164C141.45 157.087 141.028 157 140.702 156.904L140.532 157.479ZM141.881 157.757C142.636 157.88 143.334 158.038 143.977 158.229L144.148 157.654C143.478 157.454 142.755 157.292 141.978 157.165L141.881 157.757ZM143.977 158.229C144.612 158.418 145.151 158.657 145.6 158.944L145.923 158.439C145.419 158.116 144.826 157.856 144.148 157.654L143.977 158.229ZM145.597 158.942C146.04 159.232 146.377 159.579 146.617 159.982L147.133 159.674C146.842 159.186 146.437 158.775 145.926 158.441L145.597 158.942ZM146.621 159.987C146.859 160.369 146.985 160.835 146.985 161.398H147.585C147.585 160.743 147.438 160.162 147.129 159.669L146.621 159.987ZM146.985 161.398C146.985 161.91 146.862 162.378 146.615 162.808L147.135 163.106C147.435 162.583 147.585 162.012 147.585 161.398H146.985ZM146.614 162.809C146.373 163.235 146.026 163.609 145.567 163.93L145.91 164.422C146.435 164.055 146.846 163.617 147.136 163.105L146.614 162.809ZM145.568 163.929C145.101 164.25 144.531 164.507 143.853 164.695L144.014 165.273C144.743 165.071 145.376 164.789 145.908 164.423L145.568 163.929ZM143.856 164.695C143.183 164.874 142.424 164.966 141.578 164.966V165.566C142.467 165.566 143.278 165.47 144.011 165.274L143.856 164.695ZM141.578 164.966C140.651 164.966 139.841 164.844 139.144 164.607L138.95 165.175C139.722 165.437 140.599 165.566 141.578 165.566V164.966ZM139.144 164.607C138.445 164.366 137.869 164.054 137.41 163.675L137.028 164.138C137.553 164.571 138.195 164.915 138.949 165.174L139.144 164.607ZM137.408 163.673C136.944 163.298 136.598 162.877 136.361 162.411L135.826 162.683C136.105 163.232 136.509 163.717 137.03 164.139L137.408 163.673ZM136.364 162.416C136.131 161.937 136.019 161.465 136.019 161H135.419C135.419 161.566 135.556 162.126 135.824 162.678L136.364 162.416ZM135.719 161.3H138.824V160.7H135.719V161.3ZM138.525 161.02C138.551 161.408 138.658 161.756 138.855 162.055L139.356 161.726C139.225 161.525 139.144 161.28 139.124 160.98L138.525 161.02ZM138.857 162.059C139.047 162.339 139.292 162.566 139.589 162.737L139.888 162.217C139.669 162.09 139.492 161.926 139.354 161.722L138.857 162.059ZM139.583 162.733C139.872 162.909 140.197 163.033 140.554 163.11L140.68 162.523C140.381 162.459 140.12 162.357 139.894 162.22L139.583 162.733ZM140.556 163.11C140.912 163.185 141.277 163.222 141.648 163.222V162.622C141.317 162.622 140.994 162.589 140.679 162.523L140.556 163.11ZM141.648 163.222C142.086 163.222 142.476 163.186 142.816 163.109L142.684 162.524C142.399 162.588 142.055 162.622 141.648 162.622V163.222ZM142.821 163.108C143.161 163.025 143.455 162.914 143.692 162.767L143.378 162.256C143.209 162.36 142.98 162.452 142.679 162.525L142.821 163.108ZM143.697 162.764C143.924 162.619 144.107 162.442 144.229 162.227L143.708 161.929C143.643 162.043 143.537 162.154 143.373 162.259L143.697 162.764ZM144.224 162.236C144.355 162.024 144.421 161.789 144.421 161.539H143.821C143.821 161.679 143.785 161.804 143.714 161.92L144.224 162.236ZM153.613 154.086H153.313V155.064L153.862 154.254L153.613 154.086ZM154.152 153.418L153.936 153.21L153.936 153.21L154.152 153.418ZM154.785 152.867L154.96 153.111L154.961 153.111L154.785 152.867ZM159.016 152.41L158.912 152.692L158.916 152.693L159.016 152.41ZM161.371 154.965L161.086 155.059L161.088 155.063L161.371 154.965ZM161.711 165.02V165.32H162.011V165.02H161.711ZM158.453 165.02H158.153V165.32H158.453V165.02ZM158.277 156.148L157.993 156.243L157.995 156.249L158.277 156.148ZM157.035 154.906L156.938 155.19L156.945 155.192L157.035 154.906ZM154.539 155.082L154.673 155.35L154.681 155.346L154.539 155.082ZM154.023 155.422L153.829 155.193L153.823 155.198L154.023 155.422ZM153.613 155.867L153.375 155.685L153.313 155.766V155.867H153.613ZM153.613 165.02V165.32H153.913V165.02H153.613ZM150.355 165.02H150.055V165.32H150.355V165.02ZM150.355 147.02V146.72H150.055V147.02H150.355ZM153.613 147.02H153.913V146.72H153.613V147.02ZM153.862 154.254C154.017 154.026 154.186 153.816 154.369 153.626L153.936 153.21C153.729 153.426 153.538 153.662 153.365 153.918L153.862 154.254ZM154.368 153.626C154.56 153.427 154.757 153.256 154.96 153.111L154.611 152.623C154.376 152.791 154.151 152.987 153.936 153.21L154.368 153.626ZM154.961 153.111C155.271 152.887 155.614 152.713 155.992 152.59L155.805 152.02C155.371 152.162 154.972 152.363 154.61 152.624L154.961 153.111ZM155.992 152.59C156.366 152.467 156.764 152.405 157.188 152.405V151.805C156.705 151.805 156.243 151.876 155.805 152.02L155.992 152.59ZM157.188 152.405C157.821 152.405 158.395 152.502 158.912 152.692L159.119 152.128C158.527 151.912 157.882 151.805 157.188 151.805V152.405ZM158.916 152.693C159.426 152.873 159.862 153.155 160.227 153.542L160.663 153.13C160.232 152.673 159.714 152.338 159.115 152.127L158.916 152.693ZM160.227 153.542C160.59 153.926 160.878 154.428 161.086 155.059L161.656 154.871C161.426 154.174 161.098 153.59 160.663 153.13L160.227 153.542ZM161.088 155.063C161.3 155.679 161.411 156.437 161.411 157.344H162.011C162.011 156.391 161.895 155.563 161.655 154.867L161.088 155.063ZM161.411 157.344V165.02H162.011V157.344H161.411ZM161.711 164.72H158.453V165.32H161.711V164.72ZM158.753 165.02V157.32H158.153V165.02H158.753ZM158.753 157.32C158.753 156.843 158.692 156.416 158.56 156.048L157.995 156.249C158.098 156.537 158.153 156.892 158.153 157.32H158.753ZM158.562 156.054C158.44 155.688 158.257 155.378 158.005 155.135L157.589 155.568C157.759 155.732 157.896 155.953 157.993 156.243L158.562 156.054ZM158.005 155.135C157.759 154.898 157.464 154.727 157.125 154.62L156.945 155.192C157.2 155.273 157.413 155.399 157.589 155.568L158.005 155.135ZM157.132 154.622C156.799 154.508 156.429 154.454 156.027 154.454V155.054C156.376 155.054 156.678 155.101 156.938 155.19L157.132 154.622ZM156.027 154.454C155.719 154.454 155.428 154.483 155.155 154.543L155.283 155.129C155.509 155.079 155.757 155.054 156.027 155.054V154.454ZM155.155 154.543C154.88 154.603 154.627 154.694 154.397 154.818L154.681 155.346C154.857 155.251 155.057 155.178 155.283 155.129L155.155 154.543ZM154.405 154.814C154.196 154.918 154.004 155.045 153.829 155.193L154.218 155.65C154.355 155.534 154.507 155.434 154.673 155.35L154.405 154.814ZM153.823 155.198C153.66 155.344 153.511 155.507 153.375 155.685L153.852 156.049C153.966 155.9 154.09 155.765 154.223 155.645L153.823 155.198ZM153.313 155.867V165.02H153.913V155.867H153.313ZM153.613 164.72H150.355V165.32H153.613V164.72ZM150.655 165.02V147.02H150.055V165.02H150.655ZM150.355 147.32H153.613V146.72H150.355V147.32ZM153.313 147.02V154.086H153.913V147.02H153.313Z" fill="#DE7F92"/>
</svg>
