<svg width="238" height="301" viewBox="0 0 238 301" fill="none" xmlns="http://www.w3.org/2000/svg">
<path d="M237.634 0.143639V287.55C237.446 287.307 237.32 287.021 237.267 286.718C231.722 270.753 226.188 254.784 220.666 238.811C220.559 238.247 220.017 237.875 219.452 237.978C146.752 237.978 74.0541 237.978 1.35901 237.978C0.364181 237.978 0.364181 237.978 0.364181 237.019C0.364181 173.35 0.364181 109.678 0.364181 46.0045C0.354376 45.6443 0.366157 45.2838 0.399458 44.925C1.2505 37.5997 3.54545 30.5158 7.15158 24.083C12.034 15.3977 18.9766 9.05478 28.3605 5.46352C37.3654 1.992 46.9317 0.205481 56.5826 0.193049C116.926 0.127197 177.276 0.110713 237.634 0.143639ZM157.956 160.255H157.843V159.5C157.843 143.531 157.843 127.564 157.843 111.6C157.843 110.979 157.709 110.809 157.067 110.809C150.68 110.838 144.292 110.838 137.904 110.809C137.199 110.809 137.037 110.944 137.044 111.656C137.067 123.829 137.067 136.002 137.044 148.176C137.044 148.401 137.171 148.747 136.952 148.825C136.733 148.902 136.578 148.528 136.444 148.338C134.316 145.209 131.44 142.662 128.076 140.93C121.479 137.479 114.494 136.894 107.312 138.326C98.1396 140.153 91.4298 145.382 86.7237 153.347C85.5052 155.453 84.4758 157.663 83.6475 159.951C83.2665 158.978 82.942 158.11 82.5892 157.256C80.021 151.118 76.1758 145.967 70.5596 142.305C64.6252 138.405 57.4565 136.842 50.4372 137.917C42.6761 138.947 36.0087 142.002 31.3309 148.585C31.2391 148.712 31.1827 148.93 30.964 148.839C30.7453 148.747 30.8864 148.585 30.8793 148.458C30.8723 148.331 30.8793 148.119 30.8793 147.957C30.8793 135.831 30.8793 123.705 30.8793 111.579C30.8793 111.021 30.8017 110.809 30.1738 110.809C23.7156 110.838 17.2574 110.838 10.7993 110.809C10.2701 110.809 10.0937 110.922 10.0937 111.473C10.0937 145.81 10.0937 180.146 10.0937 214.483C10.0937 214.998 10.1784 215.189 10.7429 215.189C16.8906 215.165 23.0383 215.165 29.186 215.189C29.7222 215.189 29.8915 215.062 29.8915 214.526C29.8915 211.739 29.8915 208.959 29.8915 206.172C29.8915 205.96 29.7645 205.699 30.0115 205.53C30.075 205.53 30.1314 205.572 30.1526 205.6C30.2107 205.676 30.2626 205.756 30.3078 205.84C32.666 209.959 36.3859 213.128 40.8276 214.801C45.341 216.516 50.1474 217.329 54.9739 217.193C62.5251 217.221 69.7727 214.222 75.0963 208.867C78.8946 205.076 81.753 200.449 83.4429 195.356C83.5347 195.102 83.5417 194.805 83.8169 194.601C84.6603 196.878 85.699 199.078 86.9213 201.177C90.6466 207.527 95.7619 212.345 102.733 214.998C108.337 217.092 114.392 217.678 120.294 216.699C127.709 215.577 133.699 212.176 137.707 205.65C137.777 205.537 137.855 205.389 138.088 205.516C138.088 208.458 138.088 211.435 138.088 214.406C138.088 214.984 138.25 215.111 138.793 215.111C144.908 215.111 151.023 215.111 157.138 215.111C157.702 215.111 157.843 214.97 157.843 214.406C157.843 208.26 157.843 202.115 157.843 195.963V195.137C157.899 195.19 157.95 195.247 157.999 195.306C158.076 195.455 158.154 195.603 158.217 195.751C162.613 205.629 169.972 212.169 180.294 215.295C187.691 217.478 195.517 217.769 203.055 216.141C208.717 215.082 213.976 212.479 218.253 208.62C223.192 204.112 226.317 198.453 228.448 192.195C228.638 191.645 228.399 191.666 228.003 191.666C222.289 191.666 216.574 191.666 210.859 191.666C210.531 191.621 210.224 191.836 210.153 192.16C209.744 193.314 209.111 194.376 208.29 195.285C206.736 197.086 204.81 198.53 202.646 199.519C197.792 201.805 192.768 201.967 187.625 200.697C182.481 199.427 178.996 196.238 177.112 191.299C176.173 188.733 175.621 186.041 175.475 183.312C175.405 182.367 175.383 182.374 176.294 182.374C193.895 182.374 211.494 182.374 229.09 182.374C229.796 182.374 229.979 182.197 229.993 181.513C230.099 178.229 229.962 174.941 229.584 171.677C228.903 165.813 227.074 160.141 224.201 154.984C219.883 147.413 213.681 142.058 205.334 139.356C199.135 137.379 192.544 136.957 186.143 138.128C174.212 140.182 165.294 146.51 159.459 157.178C158.888 158.138 158.457 159.203 157.956 160.255Z" fill="#FF0000"/>
<path d="M157.956 160.255C158.457 159.239 158.916 158.201 159.459 157.207C165.294 146.574 174.212 140.273 186.143 138.157C192.544 136.986 199.135 137.407 205.334 139.384C213.681 142.087 219.883 147.442 224.201 155.012C227.074 160.169 228.903 165.842 229.584 171.706C229.962 174.97 230.099 178.257 229.993 181.541C229.993 182.247 229.781 182.402 229.09 182.402C211.489 182.402 193.89 182.402 176.294 182.402C175.383 182.402 175.405 182.402 175.475 183.34C175.624 186.059 176.176 188.742 177.112 191.299C179.003 196.238 182.467 199.399 187.589 200.669C192.712 201.939 197.756 201.776 202.611 199.49C204.775 198.502 206.7 197.058 208.255 195.257C209.076 194.348 209.709 193.286 210.118 192.131C210.188 191.808 210.495 191.593 210.823 191.638C216.538 191.638 222.253 191.638 227.968 191.638C228.363 191.638 228.596 191.638 228.413 192.167C226.296 198.432 223.17 204.083 218.217 208.592C213.941 212.451 208.682 215.054 203.02 216.113C195.482 217.741 187.655 217.45 180.259 215.266C169.937 212.141 162.578 205.586 158.182 195.723C158.112 195.567 158.034 195.426 157.963 195.278C157.915 195.219 157.863 195.162 157.808 195.109V195.934C157.808 202.08 157.808 208.225 157.808 214.377C157.808 214.942 157.667 215.083 157.103 215.083C150.988 215.083 144.873 215.083 138.758 215.083C138.208 215.083 138.053 214.963 138.053 214.377C138.053 211.407 138.053 208.437 138.053 205.488C137.82 205.353 137.742 205.487 137.672 205.622C133.671 212.148 127.674 215.549 120.259 216.67C114.362 217.647 108.311 217.061 102.712 214.97C95.776 212.353 90.6608 207.527 86.9213 201.177C85.6966 199.049 84.6602 196.818 83.824 194.509C83.5488 194.714 83.5347 195.01 83.45 195.264C81.7601 200.357 78.9017 204.985 75.1033 208.775C69.7798 214.131 62.5322 217.129 54.981 217.101C50.1544 217.237 45.3481 216.425 40.8347 214.709C36.3929 213.036 32.6731 209.868 30.3149 205.749C30.2696 205.665 30.2177 205.584 30.1597 205.509C30.1597 205.509 30.0821 205.466 30.0186 205.438C29.7716 205.607 29.8986 205.869 29.8986 206.08C29.8986 208.867 29.8986 211.654 29.8986 214.434C29.8986 214.977 29.7646 215.104 29.1931 215.097C23.0454 215.097 16.8976 215.097 10.7499 215.097C10.1855 215.097 10.1008 214.928 10.1008 214.392C10.1008 180.055 10.1008 145.718 10.1008 111.381C10.1008 110.831 10.249 110.718 10.8064 110.718C17.2645 110.718 23.7227 110.718 30.1808 110.718C30.8229 110.718 30.8864 110.929 30.8864 111.487C30.8864 123.613 30.8864 135.739 30.8864 147.865C30.8864 148.034 30.8864 148.204 30.8864 148.366C30.8864 148.528 30.8017 148.684 30.9711 148.747C31.1404 148.811 31.2462 148.62 31.3379 148.493C36.0158 141.91 42.6691 138.855 50.4443 137.825C57.4636 136.75 64.6323 138.314 70.5666 142.214C76.2111 145.89 80.0281 151.026 82.5963 157.164C82.9561 158.018 83.3019 158.893 83.6546 159.859C84.4829 157.572 85.5123 155.362 86.7308 153.256C91.4369 145.29 98.1678 140.055 107.319 138.234C114.501 136.823 121.486 137.388 128.083 140.838C131.456 142.572 134.34 145.124 136.472 148.26C136.606 148.451 136.649 148.867 136.98 148.747C137.312 148.627 137.072 148.324 137.072 148.098C137.072 135.925 137.072 123.752 137.072 111.579C137.072 110.873 137.255 110.732 137.933 110.732C144.32 110.76 150.708 110.76 157.096 110.732C157.745 110.732 157.872 110.901 157.872 111.522C157.872 127.491 157.872 143.458 157.872 159.422V160.177L157.956 160.255ZM137.806 177.188C137.806 176.01 137.742 174.838 137.665 173.66C137.487 170.379 136.806 167.146 135.647 164.072C134.052 160.008 131.569 156.713 127.526 154.787C124.625 153.483 121.432 152.967 118.269 153.291C114.121 153.464 110.216 155.291 107.425 158.364C105.551 160.462 104.163 162.948 103.361 165.645C101.276 172.291 101.068 179.384 102.761 186.141C103.596 190.053 105.481 193.663 108.215 196.583C112.836 201.318 118.523 202.284 124.718 200.859C129.995 199.646 133.325 196.104 135.372 191.235C137.255 186.748 137.721 182 137.806 177.188ZM30.1879 176.779C30.1755 178.565 30.2721 180.352 30.4771 182.127C30.8235 185.88 31.9097 189.527 33.6733 192.858C36.5378 198.03 40.8064 201.092 46.8248 201.431C50.4419 201.74 54.0515 200.757 57.013 198.658C60.4349 196.181 62.4598 192.724 63.758 188.78C65.2356 184.128 65.7775 179.229 65.3526 174.366C65.1423 170.34 64.1602 166.393 62.4598 162.738C58.4593 154.504 50.8888 151.788 43.1771 153.905C38.5487 155.139 35.4795 158.314 33.3629 162.484C30.9781 167.148 30.2584 172.193 30.1808 176.779L30.1879 176.779ZM192.288 169.25H201.221C203.669 169.25 206.117 169.25 208.566 169.25C208.975 169.25 209.151 169.25 209.045 168.707C208.581 166.139 207.791 163.64 206.696 161.271C205.015 157.479 201.649 154.698 197.608 153.763C194.986 153.152 192.272 153.037 189.607 153.425C185.134 154.032 181.409 155.979 178.735 159.711C176.943 162.217 175.839 165.148 175.532 168.213C175.419 169.243 175.426 169.243 176.449 169.243L192.288 169.25Z" fill="#FFFEFE"/>
<path d="M123.391 280.149V279.281C123.391 267.23 123.391 255.179 123.391 243.129C123.391 242.508 123.497 242.289 124.189 242.296C127.596 242.338 131.004 242.296 134.412 242.296C134.899 242.296 135.061 242.395 135.061 242.917C135.061 261.332 135.061 279.744 135.061 298.155C135.061 298.663 134.92 298.79 134.419 298.79C130.699 298.79 126.978 298.79 123.257 298.79C122.834 298.831 122.429 298.61 122.234 298.232C115.95 288.091 109.661 277.948 103.368 267.802C102.055 265.685 100.741 263.568 99.4238 261.452C99.3391 261.318 99.3038 261.141 99.0287 261.078V261.917C99.0287 273.898 99.0287 285.876 99.0287 297.851C99.0287 298.782 99.0287 298.782 98.0621 298.782C94.7248 298.782 91.3875 298.782 88.0503 298.782C87.5423 298.782 87.3447 298.698 87.3447 298.133C87.3447 279.747 87.3447 261.358 87.3447 242.966C87.3447 242.451 87.4364 242.261 88.0009 242.261C91.7215 242.289 95.4421 242.289 99.1627 242.261C99.5418 242.236 99.8972 242.446 100.059 242.79C107.651 255.019 115.249 267.249 122.855 279.479C122.943 279.762 123.134 280.001 123.391 280.149Z" fill="#FF0000"/>
<path d="M143.973 279.987H149.01C149.977 279.987 149.956 279.987 150.019 280.939C150.098 284.364 152.106 287.451 155.205 288.912C156.559 289.584 158.016 290.025 159.516 290.217C162.618 290.711 165.795 290.435 168.766 289.413C170.465 288.908 171.907 287.772 172.794 286.238C174.2 283.677 173.42 280.466 170.995 278.837C169.087 277.588 166.973 276.685 164.751 276.17C160.814 275.055 156.778 274.279 152.884 273.002C150.405 272.251 148.044 271.156 145.871 269.749C141.941 267.082 140.036 263.343 139.902 258.63C139.683 251.038 144.078 245.774 150.577 243.03C158.143 240.157 166.533 240.36 173.951 243.594C180.301 246.635 183.42 251.722 183.632 258.693C183.632 259.138 183.483 259.201 183.102 259.194C179.429 259.194 175.755 259.194 172.082 259.194C171.701 259.194 171.56 259.102 171.517 258.686C171.073 254.368 168.907 251.941 164.652 251.073C161.675 250.466 158.69 250.368 155.805 251.546C153.004 252.533 151.396 255.47 152.072 258.362C152.328 259.579 153.137 260.607 154.26 261.141C155.875 261.985 157.588 262.628 159.361 263.053C163.686 264.225 168.025 265.325 172.343 266.518C174.567 267.136 176.684 268.087 178.622 269.34C182.672 271.936 185.064 275.591 185.445 280.417C185.882 286.005 184.217 290.838 179.935 294.606C177.109 297.005 173.703 298.621 170.057 299.291C163.939 300.674 157.564 300.404 151.585 298.507C147.26 297.096 143.57 294.733 141.002 290.887C138.984 287.822 137.937 284.22 137.997 280.551C137.997 280.1 138.131 279.987 138.561 279.994C140.325 279.994 142.152 279.987 143.973 279.987Z" fill="#FF0000"/>
<path d="M182.171 298.747C183.011 296.517 183.829 294.33 184.661 292.143C190.88 275.765 197.091 259.384 203.295 243.001C203.391 242.533 203.838 242.222 204.311 242.296C208.074 242.324 211.837 242.324 215.6 242.296C216.051 242.221 216.482 242.513 216.581 242.959C223.439 261.35 230.306 279.735 237.183 298.112C237.366 298.599 237.423 298.818 236.752 298.818C232.865 298.818 228.991 298.818 225.09 298.818C224.711 298.873 224.357 298.616 224.292 298.239C223.022 294.45 221.724 290.668 220.454 286.88C220.389 286.473 220.007 286.195 219.6 286.259C213.015 286.259 206.414 286.259 199.796 286.259C199.393 286.2 199.018 286.477 198.956 286.88C197.637 290.676 196.289 294.464 194.956 298.26C194.843 298.592 194.751 298.825 194.292 298.825C190.355 298.825 186.418 298.825 182.481 298.825C182.404 298.782 182.312 298.768 182.171 298.747ZM209.85 256.16C209.737 256.421 209.702 256.484 209.68 256.548C207.329 263.18 204.977 269.81 202.625 276.437C202.434 276.981 202.625 277.009 203.069 277.009C207.465 277.009 211.853 277.009 216.249 277.009C216.955 277.009 216.955 276.847 216.771 276.254C214.916 270.892 213.081 265.523 211.247 260.153C210.795 258.89 210.351 257.62 209.85 256.16Z" fill="#FF0000"/>
<path d="M81.037 270.561C81.037 279.709 81.037 288.856 81.037 298C81.037 298.705 80.8324 298.804 80.2045 298.797C76.5544 298.769 72.9043 298.769 69.2543 298.797C68.704 298.797 68.5911 298.656 68.5911 298.091C68.5911 279.7 68.5911 261.308 68.5911 242.917C68.5911 242.346 68.7675 242.261 69.2966 242.268C72.9937 242.268 76.6908 242.268 80.3879 242.268C80.9382 242.268 81.0511 242.416 81.0511 242.974C81.0323 252.169 81.0276 261.365 81.037 270.561Z" fill="#FF0000"/>
<path d="M137.806 177.188C137.742 182.007 137.262 186.755 135.372 191.249C133.325 196.118 129.995 199.653 124.718 200.873C118.523 202.284 112.836 201.332 108.215 196.598C105.481 193.677 103.596 190.067 102.761 186.155C101.068 179.399 101.276 172.305 103.361 165.659C104.163 162.962 105.551 160.476 107.425 158.378C110.216 155.305 114.121 153.478 118.269 153.305C121.432 152.981 124.625 153.497 127.526 154.801C131.569 156.727 134.045 160.022 135.647 164.086C136.803 167.156 137.481 170.385 137.658 173.66C137.721 174.838 137.834 176.01 137.806 177.188ZM115.143 187.32C115.196 185.518 114.839 183.728 114.099 182.084C113.662 181.195 113.118 180.299 111.983 180.299C110.847 180.299 110.24 181.167 109.866 182.077C108.416 185.338 108.416 189.061 109.866 192.322C110.254 193.232 110.84 194.107 111.983 194.114C113.126 194.121 113.711 193.19 114.156 192.28C114.841 190.718 115.178 189.025 115.143 187.32Z" fill="#FF0000"/>
<path d="M30.1809 176.779C30.2585 172.193 30.9781 167.148 33.3488 162.463C35.4654 158.293 38.5346 155.118 43.163 153.884C50.8888 151.816 58.4594 154.511 62.4528 162.745C64.1532 166.4 65.1353 170.347 65.3456 174.373C65.7673 179.234 65.223 184.13 63.744 188.78C62.4458 192.703 60.4138 196.16 56.9989 198.658C54.0375 200.758 50.4278 201.74 46.8107 201.431C40.7924 201.092 36.5238 198.03 33.6592 192.858C31.9006 189.526 30.8191 185.879 30.4772 182.127C30.2698 180.352 30.1708 178.566 30.1809 176.779ZM59.5177 187.143C59.5508 185.393 59.1865 183.659 58.4523 182.07C58.0078 181.195 57.4857 180.335 56.378 180.306C55.2703 180.278 54.6776 181.16 54.219 182.049C53.5441 183.432 53.1873 184.948 53.1748 186.487C52.9654 188.671 53.4073 190.868 54.4448 192.802C55.5243 194.622 57.1541 194.594 58.2407 192.802C58.4304 192.471 58.5955 192.127 58.7346 191.772C59.2827 190.291 59.5484 188.721 59.5177 187.143Z" fill="#FF0000"/>
<path d="M192.281 169.25H176.435C175.412 169.25 175.405 169.25 175.517 168.22C175.824 165.155 176.929 162.224 178.721 159.718C181.395 155.986 185.12 154.038 189.593 153.431C192.258 153.044 194.972 153.159 197.594 153.77C201.635 154.705 205.001 157.486 206.682 161.277C207.78 163.648 208.572 166.15 209.038 168.721C209.144 169.25 208.968 169.264 208.558 169.264C206.11 169.264 203.662 169.264 201.214 169.264L192.281 169.25Z" fill="#FF0000"/>
<path d="M115.143 187.319C115.164 189.02 114.815 190.706 114.12 192.258C113.676 193.169 113.133 194.1 111.947 194.093C110.762 194.086 110.212 193.211 109.831 192.301C108.381 189.04 108.381 185.317 109.831 182.056C110.219 181.139 110.818 180.278 111.947 180.278C113.076 180.278 113.648 181.181 114.064 182.063C114.819 183.71 115.188 185.508 115.143 187.319Z" fill="#FFFBFA"/>
<path d="M59.5174 187.143C59.5419 188.705 59.2764 190.257 58.7342 191.722C58.5951 192.077 58.4301 192.422 58.2404 192.752C57.1609 194.573 55.524 194.608 54.4445 192.752C53.407 190.819 52.9651 188.622 53.1745 186.438C53.187 184.899 53.5438 183.383 54.2187 182C54.6844 181.111 55.2276 180.229 56.3777 180.257C57.5277 180.285 58.0075 181.153 58.452 182.021C59.1936 183.625 59.558 185.377 59.5174 187.143Z" fill="#FFFBFA"/>
</svg>
